<?xml version="1.0" encoding="UTF-8"?>
<svg width="150px" height="61px" viewBox="0 0 150 61" version="1.1" xmlns="http://www.w3.org/2000/svg" xmlns:xlink="http://www.w3.org/1999/xlink">
    <!-- Generator: Sketch 54.1 (76490) - https://sketchapp.com -->
    <title>logo</title>
    <desc>Created with Sketch.</desc>
    <g id="web" stroke="none" stroke-width="1" fill="none" fill-rule="evenodd">
        <g id="Desktop-HD" transform="translate(-118.000000, -2497.000000)">
            <g id="Group-10">
                <g id="footer" transform="translate(0.000000, 2420.000000)">
                    <g id="logo" transform="translate(118.000000, 77.000000)">
                        <g id="Group-2" transform="translate(66.600000, 17.400000)" fill="#FFFFFF">
                            <g id="Group" transform="translate(0.286401, 0.000000)">
                                <path d="M25.8333791,9.29208081 L26.3871964,8.96743799 C26.7745678,9.67684621 27.2254855,10.031545 27.7399631,10.031545 C28.0728604,10.031545 28.357332,9.92633773 28.5933864,9.71592004 C28.8294409,9.50550235 28.9474663,9.24398714 28.9474663,8.93136657 C28.9474663,8.68487727 28.8475986,8.43538575 28.6478603,8.18288452 C28.4481219,7.93038329 28.1167427,7.63129405 27.6537129,7.28560785 C27.190683,6.93992164 26.8789748,6.68141235 26.7185788,6.51007223 C26.5581829,6.33873211 26.4401574,6.15537087 26.3644989,5.95998301 C26.2888405,5.76459516 26.2510118,5.56770727 26.2510118,5.36931344 C26.2510118,4.94847806 26.4008133,4.59227631 26.7004209,4.30069751 C27.0000284,4.00911871 27.376802,3.86333149 27.8307528,3.86333149 C28.1878608,3.86333149 28.4995691,3.95200619 28.7658869,4.12935824 C29.0322047,4.3067103 29.2894397,4.56972847 29.5375994,4.91842064 L29.0110191,5.32422416 C28.8415441,5.09577067 28.6660191,4.90639759 28.4844388,4.75609924 C28.3028584,4.60580088 28.0804259,4.53065284 27.8171344,4.53065284 C27.5538429,4.53065284 27.338976,4.60880681 27.1725274,4.76511709 C27.0060788,4.92142738 26.9228557,5.11981823 26.9228557,5.36029559 C26.9228557,5.60077295 26.9969999,5.80968453 27.1452905,5.98703658 C27.2935811,6.16438864 27.6294997,6.44544234 28.1530563,6.83020612 C28.6766129,7.2149699 29.0579259,7.56966869 29.2970067,7.89431313 C29.5360875,8.21895756 29.6556261,8.56163267 29.6556261,8.92234871 C29.6556261,9.39127957 29.4725353,9.79858199 29.1063483,10.1442682 C28.7401613,10.4899544 28.3149671,10.6627949 27.8307528,10.6627949 C26.9773252,10.6627949 26.3115407,10.2058948 25.8333791,9.29208081 Z M35.1376782,3.76333938 L38.205389,10.4628107 L37.5002734,10.4628107 L36.4654933,8.2655276 L33.6267162,8.2655276 L32.6010935,10.4628107 L31.8685059,10.4628107 L34.972846,3.76333938 L35.1376782,3.76333938 Z M35.0917563,5.16322891 L33.9808003,7.56303953 L36.1936801,7.56303953 L35.0917563,5.16322891 Z M40.6194397,4.06331571 L41.2926993,4.06331571 L41.2926993,9.93820029 L43.838174,9.93820029 L43.838174,10.5628028 L40.6194397,10.5628028 L40.6194397,4.06331571 Z M46.3528101,4.06331571 L47.0084155,4.06331571 L47.0084155,7.94588976 C47.0084155,8.34640363 47.0190386,8.64827896 47.0402852,8.85152481 C47.0615318,9.05477066 47.1343761,9.25054129 47.2588203,9.43884259 C47.3832645,9.62714389 47.5577874,9.77658713 47.782394,9.88717678 C48.0070007,9.99776643 48.2482975,10.0530604 48.5062916,10.0530604 C48.7642857,10.0530604 48.9904066,10.006733 49.184661,9.91407683 C49.3789154,9.82142063 49.5428151,9.69140502 49.676365,9.52402609 C49.8099149,9.35664715 49.9024879,9.17283198 49.9540868,8.97257504 C50.0056856,8.7723181 50.0314846,8.4300931 50.0314846,7.94588976 L50.0314846,4.06331571 L50.6779843,4.06331571 L50.6779843,7.94588976 C50.6779843,8.59747203 50.6112104,9.09661243 50.4776605,9.44332593 C50.3441106,9.79003944 50.1088841,10.0799593 49.7719742,10.3130943 C49.4350642,10.5462292 49.0389732,10.6627949 48.5836895,10.6627949 C48.2194624,10.6627949 47.891663,10.6045121 47.6002814,10.4879446 C47.3088998,10.3713771 47.0660855,10.208484 46.871831,9.99926032 C46.6775766,9.79003666 46.5425111,9.55690521 46.4666305,9.29985899 C46.3907499,9.04281278 46.3528101,8.59149421 46.3528101,7.94588976 L46.3528101,4.06331571 Z M53.6955477,10.5628028 L53.6955477,4.06331571 L55.0580233,4.06331571 C55.9907294,4.06331571 56.6750084,4.13120661 57.1108808,4.26699045 C57.5467533,4.40277428 57.9231829,4.61700779 58.2401811,4.90969739 C58.5571792,5.20238699 58.8010203,5.55994573 58.9717116,5.98238432 C59.1424029,6.40482292 59.2277473,6.89816346 59.2277473,7.46242073 C59.2277473,8.026678 59.0951587,8.55773571 58.8299775,9.05560977 C58.5647964,9.55348383 58.2051308,9.92914681 57.75097,10.18261 C57.2968092,10.4360731 56.6430104,10.5628028 55.7895538,10.5628028 L53.6955477,10.5628028 Z M54.3996458,9.86285804 L55.1553374,9.86285804 C55.9444168,9.86285804 56.5164908,9.82401092 56.8715765,9.74631552 C57.2266623,9.66862011 57.537737,9.51472575 57.80481,9.28462781 C58.0718831,9.05452988 58.2752197,8.77512943 58.4148261,8.4464181 C58.5544324,8.11770676 58.6242346,7.74118852 58.6242346,7.31685206 C58.6242346,6.89251561 58.5438104,6.50105617 58.3829596,6.14246198 C58.2221088,5.7838678 57.9929757,5.48803203 57.6955534,5.25494581 C57.3981312,5.02185959 57.0476031,4.86497699 56.6439586,4.7842933 C56.2403141,4.70360961 55.646996,4.66326837 54.8639864,4.66326837 L54.3996458,4.66326837 L54.3996458,9.86285804 Z" id="SALUD"></path>
                                <path d="M0,0.102667902 L2.13747879,0.102667902 L4.98253676,7.94942895 L7.91604214,0.102667902 L9.92084983,0.102667902 L5.70485718,10.4867928 L4.09806278,10.4867928 L0,0.102667902 Z M10.9085124,3.44670812 L12.6774604,3.44670812 L12.6774604,10.4867928 L10.9085124,10.4867928 L10.9085124,3.44670812 Z M10.6579115,1.0560127 C10.6579115,0.772452318 10.7635559,0.525562928 10.974848,0.315337126 C11.1861401,0.105111324 11.4539364,0 11.7782452,0 C12.1025539,0 12.375264,0.100222425 12.5963836,0.300670283 C12.8175032,0.501118141 12.9280614,0.752896429 12.9280614,1.0560127 C12.9280614,1.35912897 12.8175032,1.61090726 12.5963836,1.81135512 C12.375264,2.01180298 12.1025539,2.1120254 11.7782452,2.1120254 C11.4539364,2.1120254 11.1861401,2.00691408 10.974848,1.79668828 C10.7635559,1.58646248 10.6579115,1.33957309 10.6579115,1.0560127 Z M14.357961,6.96675046 C14.357961,6.40940764 14.4586917,5.90340661 14.6601563,5.4487322 C14.8616208,4.99405779 15.1343309,4.60539034 15.4782947,4.28271818 C15.8222585,3.96004602 16.2300952,3.71071218 16.701817,3.53470918 C17.1735388,3.35870619 17.6747358,3.27070601 18.2054228,3.27070601 C18.7361098,3.27070601 19.2373067,3.35870619 19.7090286,3.53470918 C20.1807504,3.71071218 20.5885871,3.96004602 20.9325509,4.28271818 C21.2765147,4.60539034 21.5492248,4.99405779 21.7506893,5.4487322 C21.9521539,5.90340661 22.0528846,6.40940764 22.0528846,6.96675046 C22.0528846,7.52409329 21.9521539,8.03009431 21.7506893,8.48476872 C21.5492248,8.93944313 21.2765147,9.32811058 20.9325509,9.65078275 C20.5885871,9.97345491 20.1807504,10.2227887 19.7090286,10.3987917 C19.2373067,10.5747947 18.7361098,10.6627949 18.2054228,10.6627949 C17.6747358,10.6627949 17.1735388,10.5747947 16.701817,10.3987917 C16.2300952,10.2227887 15.8222585,9.97345491 15.4782947,9.65078275 C15.1343309,9.32811058 14.8616208,8.93944313 14.6601563,8.48476872 C14.4586917,8.03009431 14.357961,7.52409329 14.357961,6.96675046 Z M16.1269089,6.96675046 C16.1269089,7.2405329 16.173589,7.50453344 16.2669507,7.75875999 C16.3603123,8.01298654 16.4978957,8.23787588 16.6797052,8.43343477 C16.8615146,8.62899366 17.0801741,8.78543842 17.33569,8.90277375 C17.591206,9.02010908 17.881114,9.07877587 18.2054228,9.07877587 C18.5297315,9.07877587 18.8196396,9.02010908 19.0751555,8.90277375 C19.3306715,8.78543842 19.549331,8.62899366 19.7311404,8.43343477 C19.9129499,8.23787588 20.0505333,8.01298654 20.1438949,7.75875999 C20.2372565,7.50453344 20.2839367,7.2405329 20.2839367,6.96675046 C20.2839367,6.69296802 20.2372565,6.42896749 20.1438949,6.17474094 C20.0505333,5.92051439 19.9129499,5.69562504 19.7311404,5.50006615 C19.549331,5.30450727 19.3306715,5.14806251 19.0751555,5.03072718 C18.8196396,4.91339184 18.5297315,4.85472506 18.2054228,4.85472506 C17.881114,4.85472506 17.591206,4.91339184 17.33569,5.03072718 C17.0801741,5.14806251 16.8615146,5.30450727 16.6797052,5.50006615 C16.4978957,5.69562504 16.3603123,5.92051439 16.2669507,6.17474094 C16.173589,6.42896749 16.1269089,6.69296802 16.1269089,6.96675046 Z" id="Vio"></path>
                            </g>
                            <path d="M2.1704952,18.6270191 L3.03624321,18.6270191 L3.03624321,21.2296279 L6.32694709,21.2296279 L6.32694709,18.6270191 L7.1926951,18.6270191 L7.1926951,24.9255898 L6.32694709,24.9255898 L6.32694709,21.9799682 L3.03624321,21.9799682 L3.03624321,24.9255898 L2.1704952,24.9255898 L2.1704952,18.6270191 Z M9.86131565,18.6270191 L14.4743312,18.6270191 L14.4743312,19.3987976 L10.6969132,19.3987976 L10.6969132,21.3110935 L14.1900557,21.3110935 L14.1900557,22.0399955 L10.6969132,22.0399955 L10.6969132,24.1752495 L14.5389392,24.1752495 L14.5389392,24.9255898 L9.86131565,24.9255898 L9.86131565,18.6270191 Z M20.1709161,22.3444192 L19.2104096,19.5617287 L18.1896023,22.3444192 L20.1709161,22.3444192 Z M18.7624604,18.6270191 L19.7315813,18.6270191 L22.0273211,24.9255898 L21.0883506,24.9255898 L20.4465772,23.03902 L17.9440917,23.03902 L17.2592462,24.9255898 L16.3805766,24.9255898 L18.7624604,18.6270191 Z M24.0670898,18.6270191 L24.9242234,18.6270191 L24.9242234,24.1752495 L28.1287832,24.1752495 L28.1287832,24.9255898 L24.0670898,24.9255898 L24.0670898,18.6270191 Z M34.1871734,18.6270191 L34.1871734,19.3773593 L32.0551074,19.3773593 L32.0551074,24.9255898 L31.1850522,24.9255898 L31.1850522,19.3773593 L29.0529862,19.3773593 L29.0529862,18.6270191 L34.1871734,18.6270191 Z M36.2527853,18.6270191 L37.1185334,18.6270191 L37.1185334,21.2296279 L40.4092372,21.2296279 L40.4092372,18.6270191 L41.2749852,18.6270191 L41.2749852,24.9255898 L40.4092372,24.9255898 L40.4092372,21.9799682 L37.1185334,21.9799682 L37.1185334,24.9255898 L36.2527853,24.9255898 L36.2527853,18.6270191 Z M50.2388921,18.4555127 C51.0400361,18.4555127 51.661703,18.6656059 52.1039115,19.0857985 C52.54612,19.5059912 52.7916281,19.9833458 52.8404434,20.5178766 L52.0048458,20.5178766 C51.9100868,20.1119762 51.7212896,19.790405 51.4384485,19.5531534 C51.1556073,19.3159017 50.7586306,19.1972777 50.2475065,19.1972777 C49.6243946,19.1972777 49.1211746,19.4152315 48.7378315,19.8511456 C48.3544885,20.2870598 48.1628198,20.9552133 48.1628198,21.8556261 C48.1628198,22.5931071 48.3358241,23.1912296 48.6818379,23.6500113 C49.0278517,24.1087931 49.5439931,24.3381806 50.2302777,24.3381806 C50.8620041,24.3381806 51.3429705,24.0966449 51.6731911,23.6135662 C51.8483516,23.3591639 51.9790021,23.0247298 52.0651466,22.6102541 L52.9007442,22.6102541 C52.8260857,23.2734153 52.5791418,23.8293762 52.1599051,24.2781534 C51.6573955,24.8184011 50.9797355,25.0885209 50.1269048,25.0885209 C49.391805,25.0885209 48.7744453,24.866994 48.2748071,24.4239338 C47.6172373,23.8379508 47.2884574,22.9332638 47.2884574,21.7098457 C47.2884574,20.7808483 47.5354013,20.0190819 48.0292965,19.4245236 C48.5633924,18.7785131 49.299917,18.4555127 50.2388921,18.4555127 Z M57.9340198,18.4555127 C59.051027,18.4555127 59.8780019,18.812814 60.4149693,19.5274274 C60.8342059,20.0848258 61.0438211,20.7979993 61.0438211,21.6669691 C61.0438211,22.6074003 60.8040558,23.3891757 60.324518,24.0123185 C59.7617072,24.7440826 58.9591396,25.1099592 57.916791,25.1099592 C56.943358,25.1099592 56.1781191,24.7898172 55.6210512,24.1495236 C55.1242845,23.5320976 54.8759049,22.7517515 54.8759049,21.8084619 C54.8759049,20.9566427 55.0883915,20.227748 55.5133711,19.6217559 C56.058953,18.8442565 56.8658278,18.4555127 57.9340198,18.4555127 Z M58.0201639,24.3467559 C58.7753641,24.3467559 59.3216557,24.0773507 59.659055,23.5385322 C59.9964543,22.9997137 60.1651515,22.3801532 60.1651515,21.6798321 C60.1651515,20.9394927 59.9706114,20.3435141 59.5815253,19.8918784 C59.1924393,19.4402428 58.6605049,19.2144283 57.9857062,19.2144283 C57.331008,19.2144283 56.79692,19.4380989 56.3834263,19.8854469 C55.9699327,20.3327949 55.763189,20.9923731 55.763189,21.8642015 C55.763189,22.5616641 55.9405004,23.1497821 56.2951287,23.628573 C56.6497569,24.107364 57.2247629,24.3467559 58.0201639,24.3467559 Z M66.5724251,22.3444192 L65.6119186,19.5617287 L64.5911113,22.3444192 L66.5724251,22.3444192 Z M65.1639694,18.6270191 L66.1330903,18.6270191 L68.4288301,24.9255898 L67.4898596,24.9255898 L66.8480862,23.03902 L64.3456006,23.03902 L63.6607552,24.9255898 L62.7820856,24.9255898 L65.1639694,18.6270191 Z M73.1347581,18.4555127 C73.9359021,18.4555127 74.557569,18.6656059 74.9997775,19.0857985 C75.4419859,19.5059912 75.6874941,19.9833458 75.7363093,20.5178766 L74.9007118,20.5178766 C74.8059528,20.1119762 74.6171556,19.790405 74.3343144,19.5531534 C74.0514733,19.3159017 73.6544966,19.1972777 73.1433725,19.1972777 C72.5202606,19.1972777 72.0170406,19.4152315 71.6336975,19.8511456 C71.2503544,20.2870598 71.0586858,20.9552133 71.0586858,21.8556261 C71.0586858,22.5931071 71.2316901,23.1912296 71.5777039,23.6500113 C71.9237176,24.1087931 72.4398591,24.3381806 73.1261437,24.3381806 C73.7578701,24.3381806 74.2388364,24.0966449 74.5690571,23.6135662 C74.7442176,23.3591639 74.8748681,23.0247298 74.9610126,22.6102541 L75.7966102,22.6102541 C75.7219516,23.2734153 75.4750077,23.8293762 75.0557711,24.2781534 C74.5532615,24.8184011 73.8756015,25.0885209 73.0227708,25.0885209 C72.287671,25.0885209 71.6703112,24.866994 71.1706731,24.4239338 C70.5131033,23.8379508 70.1843234,22.9332638 70.1843234,21.7098457 C70.1843234,20.7808483 70.4312672,20.0190819 70.9251624,19.4245236 C71.4592584,18.7785131 72.1957829,18.4555127 73.1347581,18.4555127 Z M78.1206544,18.6270191 L78.9864024,18.6270191 L78.9864024,21.2296279 L82.2771063,21.2296279 L82.2771063,18.6270191 L83.1428543,18.6270191 L83.1428543,24.9255898 L82.2771063,24.9255898 L82.2771063,21.9799682 L78.9864024,21.9799682 L78.9864024,24.9255898 L78.1206544,24.9255898 L78.1206544,18.6270191 Z" id="HEALTH-COACH"></path>
                        </g>
                        <g id="Group-3">
                            <ellipse id="Oval-2" fill="#FFFFFF" cx="25.5" cy="25.8" rx="25.5" ry="25.8"></ellipse>
                            <path d="M23.9321636,33.4665737 C17.5165098,32.4331727 12.6,26.9059568 12.6,20.2491883 L12.6,13.4573528 C12.6,12.9200979 13.037979,12.485239 13.5790886,12.485239 C15.2389701,12.485239 16.8224828,12.7989077 18.2924211,13.3452357 C19.5619727,6.70958649 25.3464281,3.28061687 25.6381965,3.11535751 C25.6708328,3.09785946 25.7041218,3.08360179 25.8196543,3.04018071 C25.8509851,3.03045957 25.882316,3.02462688 25.9142995,3.01814613 C25.9456304,3.01231344 25.9756557,3.00648076 26.0069866,3.00324038 C26.0383174,3 26.0696483,3 26.1009791,3 C26.1329626,3 26.1636408,3 26.1949716,3.00324038 C26.2256497,3.00583268 26.2563278,3.01231344 26.2876586,3.01814613 C26.3189895,3.02397881 26.3503203,3.03045957 26.3809984,3.03953263 C26.4097184,3.04795762 26.4371328,3.05897491 26.4652,3.0699922 C26.4978363,3.08360179 26.5304726,3.09721139 26.5944397,3.12896711 C26.8548773,3.27996879 32.6373746,6.70634611 33.9062734,13.3445876 C35.3768645,12.7982596 36.9610299,12.4845909 38.6209114,12.4845909 C39.162021,12.4845909 39.6,12.9194498 39.6,13.4567048 L39.6,20.2485403 C39.6,27.2932487 34.0947587,33.0718561 27.1334894,33.6 C26.4444292,33.5998447 25.6990059,33.5866532 24.8972195,33.5604254 L23.9321636,33.4665737 Z" id="Combined-Shape" fill="#000000" fill-rule="nonzero"></path>
                            <path d="M22.2289295,48.9104226 C22.5991942,48.9104226 22.9093469,48.8965625 23.1459582,48.8807223 L25.1993605,51 L25.2,48.2015767 L24.5029559,47.4821707 C24.595682,46.0347786 24.6302144,41.7454029 22.0876023,39.121881 C19.9612981,36.9273627 16.6743195,36.6 14.9035718,36.6 C14.0779902,36.6 13.5286683,36.6693006 13.5050072,36.6726006 C13.0695145,36.7280411 12.7261084,37.083124 12.6717517,37.5325878 C12.6436142,37.7655697 12.0188325,43.2667156 15.0448991,46.3898616 C17.1718427,48.5823999 20.4588213,48.9104226 22.2289295,48.9104226 Z M14.5275517,38.7300572 C15.9094895,38.6904569 18.944509,38.822458 20.7318835,40.6665134 C22.0370825,42.0135846 22.457867,44.0635617 22.5729751,45.6350348 L20.7683344,43.7724993 C20.3935933,43.385736 19.7867173,43.385736 19.4119762,43.7724993 C19.037235,44.1586025 19.037235,44.7862677 19.4119762,45.1723709 L21.2210933,47.0395265 C19.710618,46.9233655 17.7192462,46.4930419 16.4031758,45.1354106 C14.634986,43.3104954 14.4879033,40.1959295 14.5275517,38.7300572 Z" id="Shape-Copy-2" fill="#000000" fill-rule="nonzero"></path>
                            <path d="M33.7363273,44.7198827 C34.0184337,44.7198827 34.2547405,44.7100651 34.4350158,44.698845 L35.9995128,46.2 L36,44.2177835 L35.4689188,43.7082042 C35.5395672,42.6829682 35.5658777,39.6446604 33.6286493,37.7863324 C32.008608,36.2318819 29.5042435,36 28.1551023,36 C27.5260878,36 27.1075568,36.0490879 27.0895293,36.0514254 C26.7577253,36.0906958 26.4960826,36.3422129 26.454668,36.660583 C26.4332298,36.8256119 25.9572057,40.7222569 28.2627802,42.9344853 C29.8833088,44.4875332 32.3876733,44.7198827 33.7363273,44.7198827 Z M27.8686108,37.5087905 C28.9215158,37.4807403 31.2339116,37.5742411 32.5957208,38.880447 C33.5901581,39.8346224 33.9107558,41.2866895 33.9984573,42.3998163 L32.6234929,41.0805203 C32.3379758,40.806563 31.8755941,40.806563 31.5900771,41.0805203 C31.30456,41.3540101 31.30456,41.7986063 31.5900771,42.0720961 L32.9684521,43.3946646 C31.8176137,43.3123839 30.300378,43.0075714 29.2976577,42.0459159 C27.9504655,40.7532676 27.8384025,38.5471167 27.8686108,37.5087905 Z" id="Shape-Copy-4" fill="#000000" fill-rule="nonzero" transform="translate(31.200000, 41.100000) scale(-1, 1) translate(-31.200000, -41.100000) "></path>
                            <path d="M26.05,33.4913064 L26.1753341,33.3433483 C26.5527059,33.2804372 26.9591156,33.1753062 27.4045101,33.0226654 C29.6207436,32.2462345 31.05,30.5052632 31.05,28.4680382 L31.05,17.0178692 C31.05,16.6545462 30.6972327,16.35 30.2526316,16.35 C29.8080304,16.35 29.4552632,16.6545462 29.4552632,17.0178692 L29.4517928,25.5012635 C29.3032789,26.179639 28.5360337,26.810002 27.7263158,26.810002 C26.9118798,26.810002 26.1430338,26.1725601 26.0175794,25.4695431 L25.9973684,17.0178692 C25.9973684,16.6545462 25.6446012,16.35 25.2,16.35 C24.7553988,16.35 24.4026316,16.6545462 24.4026316,17.0178692 L24.3991612,25.5012635 C24.2506473,26.179639 23.4834021,26.810002 22.6736842,26.810002 C21.8592482,26.810002 21.0904023,26.1725601 20.9649478,25.4695431 L20.9447368,17.0178692 C20.9447368,16.6545462 20.5919696,16.35 20.1473684,16.35 C19.7027673,16.35 19.35,16.6545462 19.35,17.0178692 L19.35,28.4680382 C19.35,30.505202 20.7797922,32.246203 22.9739285,33.0166374 C23.1812449,33.0542411 23.3501903,33.0917831 23.6838589,33.1711117 C23.7375221,33.1838748 23.7375221,33.1838748 23.7910171,33.1965681 C23.977641,33.2407815 24.1019689,33.2689522 24.2301407,33.295243 L24.35,33.4421836 L24.35,59.6 C24.35,60.069442 24.730558,60.45 25.2,60.45 C25.669442,60.45 26.05,60.069442 26.05,59.6 L26.05,33.4913064 Z" id="Combined-Shape" stroke="#000000" stroke-width="0.3" fill="#FFFFFF"></path>
                        </g>
                    </g>
                </g>
            </g>
        </g>
    </g>
</svg>