<?xml version="1.0" encoding="UTF-8"?>
<svg width="254px" height="114px" viewBox="0 0 254 114" version="1.1" xmlns="http://www.w3.org/2000/svg" xmlns:xlink="http://www.w3.org/1999/xlink">
    <!-- Generator: Sketch 54.1 (76490) - https://sketchapp.com -->
    <title>Artboard</title>
    <desc>Created with Sketch.</desc>
    <g id="Artboard" stroke="none" stroke-width="1" fill="none" fill-rule="evenodd">
        <g id="logo" transform="translate(9.000000, 7.000000)">
            <g id="Group-2" transform="translate(98.000000, 29.000000)">
                <g id="Group" transform="translate(0.477335, 0.000000)">
                    <path d="M43.0556319,15.4868013 L43.9786606,14.94573 C44.6242796,16.128077 45.3758092,16.7192417 46.2332719,16.7192417 C46.7881007,16.7192417 47.26222,16.5438962 47.655644,16.1932001 C48.0490681,15.8425039 48.2457772,15.4066452 48.2457772,14.8856109 C48.2457772,14.4747954 48.079331,14.0589762 47.7464338,13.6381409 C47.4135365,13.2173055 46.8612379,12.7188234 46.0895215,12.1426797 C45.317805,11.5665361 44.7982913,11.1356872 44.5309647,10.8501204 C44.2636381,10.5645535 44.066929,10.2589514 43.9408316,9.93330502 C43.8147341,9.60765859 43.7516863,9.27951211 43.7516863,8.94885574 C43.7516863,8.24746343 44.0013556,7.65379385 44.5007015,7.16782918 C45.0000474,6.68186451 45.6280033,6.43888582 46.384588,6.43888582 C46.979768,6.43888582 47.4992818,6.58667698 47.9431448,6.88226374 C48.3870078,7.1778505 48.8157328,7.61621411 49.2293324,8.19736774 L48.3516985,8.87370694 C48.0692402,8.49295112 47.7766985,8.17732931 47.4740646,7.92683206 C47.1714307,7.67633481 46.8007098,7.55108806 46.3618906,7.55108806 C45.9230715,7.55108806 45.5649601,7.68134468 45.2875457,7.94186182 C45.0101313,8.20237896 44.8714261,8.53303038 44.8714261,8.93382598 C44.8714261,9.33462159 44.9949998,9.68280754 45.2421508,9.9783943 C45.4893018,10.2739811 46.0491661,10.7424039 46.9217605,11.3836769 C47.7943549,12.0249498 48.4298766,12.6161145 48.8283445,13.1571885 C49.2268125,13.6982626 49.4260435,14.2693878 49.4260435,14.8705812 C49.4260435,15.6521326 49.1208922,16.33097 48.5105805,16.9071137 C47.9002688,17.4832573 47.1916118,17.7713249 46.384588,17.7713249 C44.9622087,17.7713249 43.8525678,17.0098246 43.0556319,15.4868013 Z M58.5627971,6.2722323 L63.6756483,17.4380178 L62.5004557,17.4380178 L60.7758222,13.7758793 L56.0445271,13.7758793 L54.3351559,17.4380178 L53.1141765,17.4380178 L58.2880767,6.2722323 L58.5627971,6.2722323 Z M58.4862604,8.60538152 L56.6346671,12.6050659 L60.3228001,12.6050659 L58.4862604,8.60538152 Z M67.6990662,6.77219285 L68.8211655,6.77219285 L68.8211655,16.5636671 L73.0636233,16.5636671 L73.0636233,17.6046713 L67.6990662,17.6046713 L67.6990662,6.77219285 Z M77.2546836,6.77219285 L78.3473592,6.77219285 L78.3473592,13.2431496 C78.3473592,13.9106727 78.3650644,14.4137983 78.4004753,14.7525413 C78.4358863,15.0912844 78.5572935,15.4175688 78.7647005,15.7314043 C78.9721076,16.0452398 79.262979,16.2943119 79.6373234,16.478628 C80.0116678,16.662944 80.4138291,16.7551007 80.8438193,16.7551007 C81.2738096,16.7551007 81.6506777,16.6778884 81.974435,16.5234614 C82.2981924,16.3690344 82.5713586,16.1523417 82.7939417,15.8733768 C83.0165249,15.5944119 83.1708132,15.2880533 83.2568113,14.9542917 C83.3428093,14.6205302 83.3858077,14.0501552 83.3858077,13.2431496 L83.3858077,6.77219285 L84.4633072,6.77219285 L84.4633072,13.2431496 C84.4633072,14.32912 84.3520173,15.1610207 84.1294341,15.7388766 C83.9068509,16.3167324 83.5148069,16.7999322 82.9532903,17.1884904 C82.3917736,17.5770487 81.731622,17.7713249 80.9728158,17.7713249 C80.3657707,17.7713249 79.8194384,17.6741868 79.3338024,17.4799076 C78.8481664,17.2856285 78.4434758,17.01414 78.1197184,16.6654339 C77.7959611,16.3167278 77.5708519,15.9281754 77.4443842,15.499765 C77.3179165,15.0713546 77.2546836,14.319157 77.2546836,13.2431496 L77.2546836,6.77219285 Z M89.4925795,17.6046713 L89.4925795,6.77219285 L91.7633722,6.77219285 C93.3178823,6.77219285 94.4583473,6.88534435 95.1848014,7.11165074 C95.9112554,7.33795714 96.5386382,7.69501298 97.0669684,8.18282898 C97.5952987,8.67064498 98.0017004,9.26657621 98.286186,9.97064054 C98.5706715,10.6747049 98.7129121,11.4969391 98.7129121,12.4373679 C98.7129121,13.3777967 98.4919311,14.2628928 98.0499626,15.092683 C97.607994,15.9224731 97.0085514,16.548578 96.2516167,16.9710166 C95.494682,17.3934552 94.4050173,17.6046713 92.9825897,17.6046713 L89.4925795,17.6046713 Z M90.6660764,16.4380967 L91.9255623,16.4380967 C93.2406946,16.4380967 94.1941513,16.3733515 94.7859609,16.2438592 C95.3777705,16.1143669 95.8962283,15.8578762 96.3413501,15.4743797 C96.7864718,15.0908831 97.1253662,14.6252157 97.3580435,14.0773635 C97.5907207,13.5295113 97.7070576,12.9019809 97.7070576,12.1947534 C97.7070576,11.487526 97.5730173,10.8350936 97.3049326,10.2374366 C97.0368479,9.63977966 96.6549595,9.14672005 96.1592557,8.75824302 C95.663552,8.36976599 95.0793385,8.10829498 94.4065977,7.97382216 C93.7338569,7.83934934 92.7449933,7.77211394 91.4399773,7.77211394 L90.6660764,7.77211394 L90.6660764,16.4380967 Z" id="SALUD" fill="#4A4A4A"></path>
                    <path d="M0,0.171113169 L3.56246465,0.171113169 L8.30422794,13.2490482 L13.1934036,0.171113169 L16.5347497,0.171113169 L9.50809531,17.477988 L6.83010464,17.477988 L0,0.171113169 Z M18.1808541,5.74451354 L21.1291007,5.74451354 L21.1291007,17.477988 L18.1808541,17.477988 L18.1808541,5.74451354 Z M17.7631858,1.76002117 C17.7631858,1.28742053 17.9392599,0.875938214 18.2914133,0.525561877 C18.6435668,0.17518554 19.0898941,0 19.6304087,0 C20.1709232,0 20.62544,0.167037376 20.9939727,0.501117139 C21.3625054,0.835196901 21.5467689,1.25482738 21.5467689,1.76002117 C21.5467689,2.26521496 21.3625054,2.68484544 20.9939727,3.0189252 C20.62544,3.35300496 20.1709232,3.52004234 19.6304087,3.52004234 C19.0898941,3.52004234 18.6435668,3.3448568 18.2914133,2.99448046 C17.9392599,2.64410413 17.7631858,2.23262181 17.7631858,1.76002117 Z M23.929935,11.6112508 C23.929935,10.6823461 24.0978195,9.83901102 24.4335937,9.08122034 C24.769368,8.32342966 25.2238848,7.67565057 25.7971578,7.13786363 C26.3704308,6.6000767 27.0501587,6.1845203 27.8363617,5.89118197 C28.6225647,5.59784364 29.4578929,5.45117668 30.3423713,5.45117668 C31.2268497,5.45117668 32.0621779,5.59784364 32.8483809,5.89118197 C33.634584,6.1845203 34.3143118,6.6000767 34.8875848,7.13786363 C35.4608579,7.67565057 35.9153747,8.32342966 36.2511489,9.08122034 C36.5869231,9.83901102 36.7548077,10.6823461 36.7548077,11.6112508 C36.7548077,12.5401555 36.5869231,13.3834905 36.2511489,14.1412812 C35.9153747,14.8990719 35.4608579,15.546851 34.8875848,16.0846379 C34.3143118,16.6224248 33.634584,17.0379812 32.8483809,17.3313196 C32.0621779,17.6246579 31.2268497,17.7713249 30.3423713,17.7713249 C29.4578929,17.7713249 28.6225647,17.6246579 27.8363617,17.3313196 C27.0501587,17.0379812 26.3704308,16.6224248 25.7971578,16.0846379 C25.2238848,15.546851 24.769368,14.8990719 24.4335937,14.1412812 C24.0978195,13.3834905 23.929935,12.5401555 23.929935,11.6112508 Z M26.8781816,11.6112508 C26.8781816,12.0675548 26.9559817,12.5075557 27.1115844,12.9312666 C27.2671871,13.3549776 27.4964929,13.7297931 27.7995086,14.0557246 C28.1025244,14.3816561 28.4669568,14.6423974 28.8928167,14.8379562 C29.3186767,15.0335151 29.8018567,15.1312931 30.3423713,15.1312931 C30.8828859,15.1312931 31.3660659,15.0335151 31.7919259,14.8379562 C32.2177859,14.6423974 32.5822183,14.3816561 32.885234,14.0557246 C33.1882498,13.7297931 33.4175555,13.3549776 33.5731582,12.9312666 C33.7287609,12.5075557 33.8065611,12.0675548 33.8065611,11.6112508 C33.8065611,11.1549467 33.7287609,10.7149458 33.5731582,10.2912349 C33.4175555,9.86752398 33.1882498,9.4927084 32.885234,9.16677692 C32.5822183,8.84084545 32.2177859,8.58010418 31.7919259,8.38454529 C31.3660659,8.18898641 30.8828859,8.09120843 30.3423713,8.09120843 C29.8018567,8.09120843 29.3186767,8.18898641 28.8928167,8.38454529 C28.4669568,8.58010418 28.1025244,8.84084545 27.7995086,9.16677692 C27.4964929,9.4927084 27.2671871,9.86752398 27.1115844,10.2912349 C26.9559817,10.7149458 26.8781816,11.1549467 26.8781816,11.6112508 Z" id="Vio" fill="#612094"></path>
                </g>
                <path d="M3.61749201,31.0450318 L5.06040535,31.0450318 L5.06040535,35.3827132 L10.5449118,35.3827132 L10.5449118,31.0450318 L11.9878252,31.0450318 L11.9878252,41.5426497 L10.5449118,41.5426497 L10.5449118,36.6332804 L5.06040535,36.6332804 L5.06040535,41.5426497 L3.61749201,41.5426497 L3.61749201,31.0450318 Z M16.4355261,31.0450318 L24.1238853,31.0450318 L24.1238853,32.3313294 L17.8281887,32.3313294 L17.8281887,35.5184891 L23.6500928,35.5184891 L23.6500928,36.7333258 L17.8281887,36.7333258 L17.8281887,40.2920826 L24.2315654,40.2920826 L24.2315654,41.5426497 L16.4355261,41.5426497 L16.4355261,31.0450318 Z M33.6181936,37.2406987 L32.0173494,32.6028811 L30.3160038,37.2406987 L33.6181936,37.2406987 Z M31.2707674,31.0450318 L32.8859689,31.0450318 L36.7122018,41.5426497 L35.147251,41.5426497 L34.0776287,38.3983666 L29.9068194,38.3983666 L28.7654104,41.5426497 L27.300961,41.5426497 L31.2707674,31.0450318 Z M40.1118164,31.0450318 L41.5403724,31.0450318 L41.5403724,40.2920826 L46.8813054,40.2920826 L46.8813054,41.5426497 L40.1118164,41.5426497 L40.1118164,31.0450318 Z M56.9786223,31.0450318 L56.9786223,32.2955989 L53.4251789,32.2955989 L53.4251789,41.5426497 L51.9750869,41.5426497 L51.9750869,32.2955989 L48.4216436,32.2955989 L48.4216436,31.0450318 L56.9786223,31.0450318 Z M60.4213089,31.0450318 L61.8642223,31.0450318 L61.8642223,35.3827132 L67.3487287,35.3827132 L67.3487287,31.0450318 L68.7916421,31.0450318 L68.7916421,41.5426497 L67.3487287,41.5426497 L67.3487287,36.6332804 L61.8642223,36.6332804 L61.8642223,41.5426497 L60.4213089,41.5426497 L60.4213089,31.0450318 Z M83.7314869,30.7591878 C85.0667268,30.7591878 86.1028383,31.1093431 86.8398525,31.8096642 C87.5768666,32.5099854 87.9860469,33.3055763 88.0674056,34.196461 L86.674743,34.196461 C86.5168114,33.5199603 86.2021493,32.9840083 85.7307474,32.5885889 C85.2593455,32.1931695 84.5977177,31.9954628 83.7458442,31.9954628 C82.7073243,31.9954628 81.8686243,32.3587191 81.2297192,33.0852427 C80.5908141,33.8117663 80.2713663,34.9253555 80.2713663,36.4260436 C80.2713663,37.6551786 80.5597068,38.6520493 81.1363965,39.4166856 C81.7130861,40.1813219 82.5733219,40.5636343 83.7171296,40.5636343 C84.7700069,40.5636343 85.5716174,40.1610748 86.1219851,39.3559437 C86.4139193,38.9319398 86.6316702,38.3745497 86.7752444,37.6837568 L88.167907,37.6837568 C88.0434761,38.7890255 87.6319029,39.7156269 86.9331752,40.4635889 C86.0956591,41.3640018 84.9662258,41.8142015 83.5448414,41.8142015 C82.319675,41.8142015 81.2907421,41.4449901 80.4580118,40.7065563 C79.3620622,39.729918 78.8140956,38.2221064 78.8140956,36.1830762 C78.8140956,34.6347472 79.2256688,33.3651365 80.0488275,32.374206 C80.9389874,31.2975218 82.1665283,30.7591878 83.7314869,30.7591878 Z M96.5566996,30.7591878 C98.4183783,30.7591878 99.7966698,31.3546901 100.691616,32.5457123 C101.390343,33.4747097 101.739702,34.6633321 101.739702,36.1116152 C101.739702,37.6790006 101.340093,38.9819594 100.540863,40.0205309 C99.6028454,41.2401377 98.2652326,41.8499319 96.527985,41.8499319 C94.9055967,41.8499319 93.6301984,41.316362 92.701752,40.249206 C91.8738076,39.2201627 91.4598416,37.9195859 91.4598416,36.3474365 C91.4598416,34.9277379 91.8139859,33.7129134 92.5222852,32.7029265 C93.4315884,31.4070942 94.7763797,30.7591878 96.5566996,30.7591878 Z M96.7002731,40.5779265 C97.9589401,40.5779265 98.8694261,40.1289178 99.4317583,39.230887 C99.9940906,38.3328562 100.275252,37.3002554 100.275252,36.1330535 C100.275252,34.8991544 99.951019,33.9058568 99.3025422,33.1531307 C98.6540655,32.4004046 97.7675082,32.0240472 96.6428437,32.0240472 C95.5516799,32.0240472 94.6615333,32.3968316 93.9723772,33.1424115 C93.2832211,33.8879915 92.9386483,34.9872886 92.9386483,36.4403358 C92.9386483,37.6027735 93.2341674,38.5829701 93.8252144,39.3809551 C94.4162615,40.17894 95.3746048,40.5779265 96.7002731,40.5779265 Z M110.954042,37.2406987 L109.353198,32.6028811 L107.651852,37.2406987 L110.954042,37.2406987 Z M108.606616,31.0450318 L110.221817,31.0450318 L114.04805,41.5426497 L112.483099,41.5426497 L111.413477,38.3983666 L107.242668,38.3983666 L106.101259,41.5426497 L104.636809,41.5426497 L108.606616,31.0450318 Z M121.891264,30.7591878 C123.226503,30.7591878 124.262615,31.1093431 124.999629,31.8096642 C125.736643,32.5099854 126.145824,33.3055763 126.227182,34.196461 L124.83452,34.196461 C124.676588,33.5199603 124.361926,32.9840083 123.890524,32.5885889 C123.419122,32.1931695 122.757494,31.9954628 121.905621,31.9954628 C120.867101,31.9954628 120.028401,32.3587191 119.389496,33.0852427 C118.750591,33.8117663 118.431143,34.9253555 118.431143,36.4260436 C118.431143,37.6551786 118.719483,38.6520493 119.296173,39.4166856 C119.872863,40.1813219 120.733098,40.5636343 121.876906,40.5636343 C122.929784,40.5636343 123.731394,40.1610748 124.281762,39.3559437 C124.573696,38.9319398 124.791447,38.3745497 124.935021,37.6837568 L126.327684,37.6837568 C126.203253,38.7890255 125.79168,39.7156269 125.092952,40.4635889 C124.255436,41.3640018 123.126002,41.8142015 121.704618,41.8142015 C120.479452,41.8142015 119.450519,41.4449901 118.617788,40.7065563 C117.521839,39.729918 116.973872,38.2221064 116.973872,36.1830762 C116.973872,34.6347472 117.385445,33.3651365 118.208604,32.374206 C119.098764,31.2975218 120.326305,30.7591878 121.891264,30.7591878 Z M130.201091,31.0450318 L131.644004,31.0450318 L131.644004,35.3827132 L137.128511,35.3827132 L137.128511,31.0450318 L138.571424,31.0450318 L138.571424,41.5426497 L137.128511,41.5426497 L137.128511,36.6332804 L131.644004,36.6332804 L131.644004,41.5426497 L130.201091,41.5426497 L130.201091,31.0450318 Z" id="HEALTH-COACH" fill="#622C94"></path>
            </g>
            <g id="Group-3">
                <ellipse id="Oval-2" fill="#612094" cx="42.5" cy="43" rx="42.5" ry="43"></ellipse>
                <path d="M39.8869393,55.7776228 C29.194183,54.0552879 21,44.8432613 21,33.7486472 L21,22.4289214 C21,21.5334965 21.7299649,20.8087316 22.6318143,20.8087316 C25.3982836,20.8087316 28.0374713,21.3315129 30.4873685,22.2420595 C32.6032878,11.1826442 42.2440469,5.46769478 42.7303276,5.19226252 C42.7847214,5.1630991 42.8402031,5.13933632 43.0327572,5.06696784 C43.0849752,5.05076595 43.1371933,5.04104481 43.1904992,5.03024354 C43.2427173,5.0205224 43.2927596,5.01080127 43.3449776,5.00540063 C43.3971957,5 43.4494138,5 43.5016318,5 C43.5549377,5 43.6060679,5 43.658286,5.00540063 C43.7094162,5.00972114 43.7605464,5.0205224 43.8127644,5.03024354 C43.8649825,5.03996468 43.9172005,5.05076595 43.9683307,5.06588772 C44.0161973,5.07992936 44.0618881,5.09829151 44.1086667,5.11665366 C44.1630606,5.13933632 44.2174544,5.16201898 44.3240662,5.21494518 C44.7581289,5.46661465 54.3956243,11.1772435 56.5104557,22.2409794 C58.9614408,21.3304327 61.6017164,20.8076515 64.3681857,20.8076515 C65.2700351,20.8076515 66,21.5324164 66,22.4278413 L66,33.7475671 C66,45.4887478 56.8245979,55.1197602 45.2224823,56 C44.0740486,55.9997412 42.8316765,55.9777554 41.4953659,55.9340424 L39.8869393,55.7776228 Z" id="Combined-Shape" fill="#FFFFFF" fill-rule="nonzero"></path>
                <path d="M37.0482159,81.517371 C37.6653237,81.517371 38.1822448,81.4942708 38.576597,81.4678706 L41.9989342,85 L42,80.3359611 L40.8382599,79.1369511 C40.9928033,76.724631 41.0503574,69.5756715 36.8126704,65.203135 C33.2688301,61.5456045 27.7905326,61 24.8392863,61 C23.463317,61 22.5477805,61.115501 22.5083453,61.121001 C21.7825242,61.2134018 21.2101806,61.8052067 21.1195862,62.554313 C21.0726903,62.9426162 20.0313874,72.1111926 25.0748318,77.316436 C28.6197379,80.9706664 34.0980354,81.517371 37.0482159,81.517371 Z M24.2125861,64.5500954 C26.5158159,64.4840949 31.5741816,64.7040967 34.5531391,67.7775223 C36.7284709,70.022641 37.4297783,73.4392695 37.6216252,76.0583913 L34.6138907,72.9541654 C33.9893221,72.3095601 32.9778622,72.3095601 32.3532936,72.9541654 C31.7287251,73.5976708 31.7287251,74.6437795 32.3532936,75.2872849 L35.3684889,78.3992108 C32.85103,78.2056092 29.532077,77.4884032 27.3386263,75.2256844 C24.3916433,72.184159 24.1465055,66.9932158 24.2125861,64.5500954 Z" id="Shape-Copy-2" fill="#FFFFFF" fill-rule="nonzero"></path>
                <path d="M56.2272121,74.5331378 C56.6973895,74.5331378 57.0912341,74.5167751 57.3916929,74.498075 L59.9991879,77 L60,73.6963058 L59.1148647,72.8470071 C59.232612,71.1382803 59.2764628,66.074434 56.0477489,62.9772206 C53.3476801,60.3864699 49.1737391,60 46.9251705,60 C45.876813,60 45.1792614,60.0818132 45.1492155,60.085709 C44.5962089,60.1511596 44.1601376,60.5703548 44.0911133,61.1009717 C44.0553831,61.3760198 43.2620095,67.8704281 47.1046337,71.5574755 C49.8055146,74.1458887 53.9794556,74.5331378 56.2272121,74.5331378 Z M46.4476847,62.5146509 C48.2025264,62.4679005 52.0565193,62.6237352 54.3262013,64.800745 C55.9835969,66.3910374 56.5179263,68.8111492 56.6640954,70.6663605 L54.3724881,68.4675338 C53.8966264,68.0109384 53.1259902,68.0109384 52.6501285,68.4675338 C52.1742667,68.9233501 52.1742667,69.6643438 52.6501285,70.1201601 L54.9474201,72.324441 C53.0293562,72.1873065 50.5006301,71.6792856 48.8294296,70.0765264 C46.5841092,67.9221126 46.3973375,64.2451945 46.4476847,62.5146509 Z" id="Shape-Copy-4" fill="#AD37D9" fill-rule="nonzero" transform="translate(52.000000, 68.500000) scale(-1, 1) translate(-52.000000, -68.500000) "></path>
                <path d="M43.6666667,55.8188439 L43.6666667,99.3333333 C43.6666667,100.253808 42.9204746,101 42,101 C41.0795254,101 40.3333333,100.253808 40.3333333,99.3333333 L40.3333333,55.7369727 C39.6348158,55.5936918 38.9734668,55.405799 38.2452632,55.2737154 C34.5842105,53.9914782 32,51.0671646 32,47.4467303 L32,42.9030124 L32,42.4486407 L32,28.3631154 C32,27.6106757 32.7073684,27 33.5789474,27 C34.4505263,27 35.1578947,27.6106757 35.1578947,28.3631154 L35.1915789,42.4486407 C35.3568421,43.3573842 36.4505263,44.4333366 37.7894737,44.4333366 C39.1284211,44.4333366 40.2221053,43.3573842 40.4210526,42.4486407 L40.4210526,28.3631154 C40.4210526,27.6106757 41.1284211,27 42,27 C42.8715789,27 43.5789474,27.6106757 43.5789474,28.3631154 L43.6126316,42.4486407 C43.7778947,43.3573842 44.8715789,44.4333366 46.2105263,44.4333366 C47.5494737,44.4333366 48.6431579,43.3573842 48.8421053,42.4486407 L48.8421053,28.3631154 C48.8421053,27.6106757 49.5494737,27 50.4210526,27 C51.2926316,27 52,27.6106757 52,28.3631154 L52,42.4486407 L52,42.9030124 L52,47.4467303 C52,51.0671646 49.4168421,53.9914782 45.7568421,55.2737154 C44.9738971,55.5420444 44.2855439,55.7156719 43.6666667,55.8188439 Z" id="Combined-Shape" fill="#AD37D9"></path>
            </g>
        </g>
    </g>
</svg>